<svg xmlns="http://www.w3.org/2000/svg" width="28" height="31" viewBox="0 0 28 31" fill="none">
    <g clip-path="url(#clip0_0_844)">
        <path d="M26.9204 30.0803C26.6504 30.0803 26.4204 29.8803 26.4004 29.6103L25.6304 21.9403C25.4304 19.9903 23.9504 18.4103 22.0104 18.0903L17.3704 17.3303L13.9904 19.2203C13.8304 19.3103 13.6404 19.3103 13.4804 19.2203L10.1004 17.3303L5.46043 18.0903C3.53043 18.4103 2.04043 19.9903 1.84043 21.9403L1.07043 29.6103C1.04043 29.9003 0.780431 30.1103 0.490431 30.0803C0.200431 30.0503 -0.00956904 29.7903 0.020431 29.5003L0.790431 21.8303C1.03043 19.4103 2.88043 17.4403 5.29043 17.0503L10.1104 16.2603C10.2304 16.2403 10.3504 16.2603 10.4504 16.3203L13.7404 18.1503L17.0304 16.3203C17.1304 16.2603 17.2504 16.2403 17.3704 16.2603L22.1904 17.0503C24.5904 17.4403 26.4404 19.4103 26.6904 21.8303L27.4604 29.5003C27.4904 29.7903 27.2804 30.0503 26.9904 30.0803C26.9704 30.0803 26.9504 30.0803 26.9404 30.0803H26.9204Z" fill="#00008F"/>
        <path d="M10.18 17.3099C10.11 17.3099 10.04 17.2999 9.97004 17.2699C9.70004 17.1599 9.58004 16.8399 9.69004 16.5799L10.2 15.3899C10.31 15.1199 10.62 14.9999 10.89 15.1099C11.16 15.2199 11.28 15.5399 11.17 15.7999L10.66 16.9899C10.57 17.1899 10.38 17.3099 10.17 17.3099H10.18Z" fill="#00008F"/>
        <path d="M17.2705 17.3103C17.0605 17.3103 16.8705 17.1903 16.7805 16.9903L16.2705 15.8003C16.1605 15.5303 16.2705 15.2203 16.5505 15.1103C16.8205 15.0003 17.1305 15.1103 17.2405 15.3903L17.7505 16.5803C17.8605 16.8503 17.7505 17.1603 17.4705 17.2703C17.4005 17.3003 17.3305 17.3103 17.2605 17.3103H17.2705Z" fill="#00008F"/>
        <path d="M13.7204 15.1403C10.8904 15.1403 9.15043 12.5603 8.48043 10.2503C7.70043 9.84032 7.64043 9.00032 7.62043 8.67032L7.57043 7.86032C7.52043 7.08032 7.74043 6.52032 8.22043 6.18032C8.19043 5.08032 8.26043 1.93032 9.95043 1.11032C9.98043 1.09032 10.0004 1.05032 10.0104 1.02032C10.2604 0.510324 10.6404 0.200324 11.9604 0.050324C13.5904 -0.139676 15.9704 0.190324 17.1704 1.17032L17.2204 1.21032C17.9904 1.84032 19.2704 2.88032 19.2304 6.18032C19.7104 6.52032 19.9304 7.08032 19.8904 7.86032L19.8404 8.67032C19.8204 9.00032 19.7704 9.81032 19.0304 10.2303C18.3804 12.6503 16.6804 15.1503 13.7404 15.1503L13.7204 15.1403ZM12.9004 1.06032C12.6104 1.06032 12.3304 1.08032 12.0704 1.10032C11.0804 1.21032 11.0104 1.37032 10.9604 1.48032C10.8904 1.63032 10.7604 1.89032 10.4104 2.06032C9.42043 2.54032 9.20043 5.01032 9.29043 6.45032C9.30043 6.68032 9.17043 6.89032 8.96043 6.97032C8.76043 7.05032 8.59043 7.17032 8.63043 7.79032L8.68043 8.60032C8.71043 9.14032 8.85043 9.28032 9.09043 9.36032C9.26043 9.42032 9.39043 9.55032 9.43043 9.73032C9.96043 11.7403 11.4004 14.0903 13.7204 14.0903C16.7704 14.0903 17.8004 10.7603 18.0404 9.73032C18.0804 9.56032 18.2104 9.41033 18.3804 9.35032C18.6104 9.27032 18.7304 9.13032 18.7704 8.60032L18.8204 7.79032C18.8604 7.18032 18.6804 7.05032 18.4904 6.97032C18.2804 6.89032 18.1504 6.68032 18.1604 6.46032C18.2704 3.43032 17.2304 2.58032 16.5504 2.02032L16.5004 1.98032C15.7304 1.35032 14.2204 1.05032 12.9104 1.05032L12.9004 1.06032Z" fill="#00008F"/>
        <path d="M18.5008 4.69016C18.2608 4.69016 18.0408 4.53016 17.9908 4.28016C17.9308 4.04016 17.8008 3.87016 17.5808 3.74016C16.8808 3.34016 15.3408 3.45016 13.4608 4.03016C11.7408 4.57016 10.4508 4.54016 9.64082 3.94016C9.01082 3.48016 8.84082 2.78016 8.84082 2.44016C8.84082 2.15016 9.08082 1.91016 9.37082 1.91016C9.66082 1.91016 9.89082 2.14016 9.90082 2.43016C9.90082 2.46016 9.92082 2.85016 10.2808 3.10016C10.8008 3.47016 11.8208 3.44016 13.1508 3.02016C14.4308 2.62016 16.7808 2.06016 18.1108 2.82016C18.5808 3.09016 18.9008 3.51016 19.0208 4.03016C19.0908 4.31016 18.9108 4.60016 18.6308 4.67016C18.5908 4.67016 18.5508 4.68016 18.5108 4.68016L18.5008 4.69016Z" fill="#00008F"/>
        <path d="M7.09992 24.0897C6.81992 24.0897 6.58992 23.8797 6.56992 23.5997C6.27992 19.2797 7.94992 16.8897 8.01992 16.7897C8.18992 16.5497 8.51992 16.4997 8.75992 16.6697C8.99992 16.8397 9.04992 17.1697 8.87992 17.4097C8.85992 17.4397 7.35992 19.6197 7.61992 23.5297C7.63992 23.8197 7.41992 24.0697 7.12992 24.0897C7.11992 24.0897 7.10992 24.0897 7.08992 24.0897H7.09992Z" fill="#00008F"/>
        <path d="M20.2697 22.2904C19.9797 22.2904 19.7497 22.0504 19.7497 21.7604C19.7897 18.9804 18.7497 17.4204 18.7397 17.4004C18.5797 17.1604 18.6397 16.8304 18.8797 16.6704C19.1197 16.5104 19.4497 16.5704 19.6097 16.8104C19.6597 16.8804 20.8397 18.6404 20.7997 21.7804C20.7997 22.0704 20.5597 22.3004 20.2697 22.3004V22.2904Z" fill="#00008F"/>
        <path d="M7.09973 28.47C6.05973 28.47 5.21973 27.63 5.21973 26.59C5.21973 25.55 6.05973 24.71 7.09973 24.71C8.13973 24.71 8.97973 25.55 8.97973 26.59C8.97973 27.63 8.13973 28.47 7.09973 28.47ZM7.09973 25.76C6.64973 25.76 6.27973 26.13 6.27973 26.58C6.27973 27.03 6.64973 27.41 7.09973 27.41C7.54973 27.41 7.91973 27.04 7.91973 26.58C7.91973 26.12 7.54973 25.76 7.09973 25.76Z" fill="#00008F"/>
        <path d="M18.3203 28.7702H17.4803C17.3003 28.7702 17.1303 28.6802 17.0303 28.5202C16.5403 27.7302 16.2803 26.8002 16.2803 25.8302C16.2803 23.3002 18.0703 21.2402 20.2803 21.2402C22.4903 21.2402 24.2803 23.3002 24.2803 25.8302C24.2803 26.7402 24.0503 27.6102 23.6203 28.3702C23.5303 28.5302 23.3503 28.6302 23.1603 28.6302H22.3403C22.0503 28.6302 21.8103 28.3902 21.8103 28.1002C21.8103 27.8102 22.0503 27.5702 22.3403 27.5702H22.8403C23.0903 27.0402 23.2203 26.4402 23.2203 25.8202C23.2203 23.8702 21.9003 22.2802 20.2803 22.2802C18.6603 22.2802 17.3403 23.8702 17.3403 25.8202C17.3403 26.4902 17.5003 27.1402 17.7903 27.7002H18.3303C18.6203 27.7002 18.8603 27.9402 18.8603 28.2302C18.8603 28.5202 18.6203 28.7602 18.3303 28.7602L18.3203 28.7702Z" fill="#00008F"/>
    </g>
    <defs>
        <clipPath id="clip0_0_844">
            <rect width="27.45" height="30.08" fill="white"/>
        </clipPath>
    </defs>
</svg>