<svg xmlns="http://www.w3.org/2000/svg" width="34" height="31" viewBox="0 0 34 31" fill="none">
    <path d="M22.7625 12.7125H19.6209V9.58333C19.6209 9.07247 19.2067 8.65833 18.6959 8.65833H14.6375C14.3922 8.65833 14.1569 8.75579 13.9835 8.92926C13.81 9.10273 13.7125 9.33801 13.7125 9.58333V12.725H10.575C10.0642 12.725 9.65002 13.1391 9.65002 13.65V17.7167C9.65002 18.2275 10.0642 18.6417 10.575 18.6417H13.7125V21.7833C13.7125 22.2942 14.1267 22.7083 14.6375 22.7083H18.7C19.2109 22.7083 19.625 22.2942 19.625 21.7833V18.6292H22.7625C23.2734 18.6292 23.6875 18.215 23.6875 17.7042V13.6375C23.6875 13.1266 23.2734 12.7125 22.7625 12.7125ZM22.8542 17.7125C22.8542 17.7631 22.8132 17.8042 22.7625 17.8042H19.2042C18.9741 17.8042 18.7875 17.9907 18.7875 18.2208V21.7792C18.7875 21.8298 18.7465 21.8708 18.6959 21.8708H14.6375C14.5869 21.8708 14.5459 21.8298 14.5459 21.7792V18.2125C14.5459 17.9824 14.3593 17.7958 14.1292 17.7958H10.575C10.5244 17.7958 10.4834 17.7548 10.4834 17.7042V13.6375C10.4834 13.5869 10.5244 13.5458 10.575 13.5458H14.1292C14.3593 13.5458 14.5459 13.3593 14.5459 13.1292V9.58333C14.5459 9.53271 14.5869 9.49167 14.6375 9.49167H18.7C18.7507 9.49167 18.7917 9.53271 18.7917 9.58333V13.1417C18.7917 13.3718 18.9782 13.5583 19.2084 13.5583H22.7625C22.8132 13.5583 22.8542 13.5994 22.8542 13.65V17.7125Z" fill="#00008F"/>
    <path d="M30.8333 3.05H23.4583L22.0833 1.42083C21.1833 0.370833 20.5875 0 19.0083 0H14.325C12.7458 0 12.15 0.370833 11.2708 1.41667L9.875 3.05H2.5C1.11929 3.05 0 4.16929 0 5.55V25.7917C0 27.1724 1.11929 28.2917 2.5 28.2917H4.0625V30.4167C4.0625 30.6468 4.24905 30.8333 4.47917 30.8333H9.55833C9.78845 30.8333 9.975 30.6468 9.975 30.4167V28.2917H23.3583V30.4167C23.3583 30.6468 23.5449 30.8333 23.775 30.8333H28.8542C29.0843 30.8333 29.2708 30.6468 29.2708 30.4167V28.2917H30.8333C32.214 28.2917 33.3333 27.1724 33.3333 25.7917V5.55C33.3333 4.16929 32.214 3.05 30.8333 3.05ZM24.1917 3.88333H28.4375V5C28.4375 5.61212 27.9413 6.10833 27.3292 6.10833H25.3C24.6879 6.10833 24.1917 5.61212 24.1917 5V3.88333ZM11.9083 1.95417C12.65 1.07083 13.0375 0.833333 14.325 0.833333H19.0083C20.2958 0.833333 20.675 1.07083 21.4292 1.95833L22.3625 3.05H10.9708L11.9083 1.95417ZM4.89583 3.88333H9.14167V5C9.14167 5.61212 8.64545 6.10833 8.03333 6.10833H6.00417C5.39205 6.10833 4.89583 5.61212 4.89583 5V3.88333ZM9.14167 30H4.89583V28.2917H9.14167V30ZM28.4375 30H24.1917V28.2917H28.4375V30ZM32.5 25.7917C32.5 26.7121 31.7538 27.4583 30.8333 27.4583H2.5C1.57953 27.4583 0.833333 26.7121 0.833333 25.7917V5.55C0.833333 4.62953 1.57953 3.88333 2.5 3.88333H4.0625V5C4.0625 6.07235 4.93181 6.94167 6.00417 6.94167H8.0375C9.10823 6.93937 9.975 6.07073 9.975 5V3.88333H23.3583V5C23.3583 6.07235 24.2276 6.94167 25.3 6.94167H27.3333C28.4041 6.93937 29.2708 6.07073 29.2708 5V3.88333H30.8333C31.7538 3.88333 32.5 4.62953 32.5 5.55V25.7917Z" fill="#00008F"/>
</svg>