<svg xmlns="http://www.w3.org/2000/svg" width="18" height="18" viewBox="0 0 18 18" fill="none">
    <path d="M15.75 3C14.9175 2.7375 14.0025 2.625 13.125 2.625C11.6625 2.625 10.0875 2.925 9 3.75C7.9125 2.925 6.3375 2.625 4.875 2.625C3.4125 2.625 1.8375 2.925 0.75 3.75V14.7375C0.75 14.925 0.9375 15.1125 1.125 15.1125C1.2 15.1125 1.2375 15.075 1.3125 15.075C2.325 14.5875 3.7875 14.25 4.875 14.25C6.3375 14.25 7.9125 14.55 9 15.375C10.0125 14.7375 11.85 14.25 13.125 14.25C14.3625 14.25 15.6375 14.475 16.6875 15.0375C16.7625 15.075 16.8 15.075 16.875 15.075C17.0625 15.075 17.25 14.8875 17.25 14.7V3.75C16.8 3.4125 16.3125 3.1875 15.75 3ZM15.75 13.125C14.925 12.8625 14.025 12.75 13.125 12.75C11.85 12.75 10.0125 13.2375 9 13.875V5.25C10.0125 4.6125 11.85 4.125 13.125 4.125C14.025 4.125 14.925 4.2375 15.75 4.5V13.125Z" fill="#1F1F9C"/>
</svg>