<svg width="25" height="24" viewBox="0 0 25 24" fill="none" xmlns="http://www.w3.org/2000/svg">
    <path d="M10.4078 8.92L13.5032 12L10.4078 15.08L11.8248 16.5L16.3473 12L11.8248 7.5L10.4078 8.92ZM2.77978 12C2.77978 17.52 7.2822 22 12.8298 22C18.3774 22 22.8799 17.52 22.8799 12C22.8799 6.48 18.3774 2 12.8298 2C7.2822 2 2.77978 6.48 2.77978 12ZM20.8699 12C20.8699 16.42 17.2719 20 12.8298 20C8.38771 20 4.78979 16.42 4.78979 12C4.78979 7.58 8.38771 4 12.8298 4C17.2719 4 20.8699 7.58 20.8699 12Z" fill="#00008F"/>
</svg>
