<svg xmlns="http://www.w3.org/2000/svg" width="38" height="33" viewBox="0 0 38 33" fill="none">
    <path d="M13.08 29.99H2.95998C2.65998 29.99 2.41998 29.75 2.41998 29.45V4.63C2.41998 4.33 2.65998 4.09 2.95998 4.09H23.19C23.49 4.09 23.73 4.33 23.73 4.63V8.03C23.73 8.33 23.49 8.57 23.19 8.57C22.89 8.57 22.65 8.33 22.65 8.03V5.17H3.49998V28.92H13.07C13.37 28.92 13.61 29.16 13.61 29.46C13.61 29.76 13.37 30 13.07 30L13.08 29.99Z" fill="#00008F"/>
    <path d="M17.49 32.3095H0.54C0.24 32.3095 0 32.0695 0 31.7695V2.30953C0 2.00953 0.24 1.76953 0.54 1.76953H4.36C4.66 1.76953 4.9 2.00953 4.9 2.30953C4.9 2.60953 4.66 2.84953 4.36 2.84953H1.08V31.2295H17.49C17.79 31.2295 18.03 31.4695 18.03 31.7695C18.03 32.0695 17.79 32.3095 17.49 32.3095Z" fill="#00008F"/>
    <path d="M25.62 10.5695C25.32 10.5695 25.08 10.3295 25.08 10.0295V2.84953H21.8C21.5 2.84953 21.26 2.60953 21.26 2.30953C21.26 2.00953 21.5 1.76953 21.8 1.76953H25.62C25.92 1.76953 26.16 2.00953 26.16 2.30953V10.0295C26.16 10.3295 25.92 10.5695 25.62 10.5695Z" fill="#00008F"/>
    <path d="M19.56 3.53C19.26 3.53 19.02 3.29 19.02 2.99V1.08H7.12999V2.99C7.12999 3.29 6.88999 3.53 6.58999 3.53C6.28999 3.53 6.04999 3.29 6.04999 2.99V0.54C6.04999 0.24 6.28999 0 6.58999 0H19.56C19.86 0 20.1 0.24 20.1 0.54V2.99C20.1 3.29 19.86 3.53 19.56 3.53Z" fill="#00008F"/>
    <path d="M7.82975 11.4896C7.67975 11.4896 7.52975 11.4296 7.42975 11.3096L6.36975 10.1496C6.16975 9.92959 6.18975 9.58959 6.40975 9.38959C6.62975 9.18959 6.96975 9.20959 7.16975 9.42959L7.82975 10.1496L9.09975 8.74959C9.29975 8.52959 9.63975 8.50959 9.85975 8.70959C10.0797 8.90959 10.0997 9.24959 9.89975 9.46959L8.22975 11.3196C8.12975 11.4296 7.97975 11.4996 7.82975 11.4996V11.4896Z" fill="#00008F"/>
    <path d="M19.5501 11.0595H11.8701C11.5701 11.0595 11.3301 10.8195 11.3301 10.5195C11.3301 10.2195 11.5701 9.97949 11.8701 9.97949H19.5501C19.8501 9.97949 20.0901 10.2195 20.0901 10.5195C20.0901 10.8195 19.8501 11.0595 19.5501 11.0595Z" fill="#00008F"/>
    <path d="M7.82975 16.3304C7.67975 16.3304 7.52975 16.2704 7.42975 16.1504L6.36975 14.9904C6.16975 14.7704 6.18975 14.4304 6.40975 14.2304C6.62975 14.0304 6.96975 14.0504 7.16975 14.2704L7.82975 14.9904L9.09975 13.5904C9.29975 13.3704 9.63975 13.3504 9.85975 13.5504C10.0797 13.7504 10.0997 14.0904 9.89975 14.3104L8.22975 16.1604C8.12975 16.2704 7.97975 16.3404 7.82975 16.3404V16.3304Z" fill="#00008F"/>
    <path d="M18.9297 15.8904H11.8797C11.5797 15.8904 11.3397 15.6504 11.3397 15.3504C11.3397 15.0504 11.5797 14.8104 11.8797 14.8104H18.9297C19.2297 14.8104 19.4697 15.0504 19.4697 15.3504C19.4697 15.6504 19.2297 15.8904 18.9297 15.8904Z" fill="#00008F"/>
    <path d="M7.82975 21.1595C7.67975 21.1595 7.52975 21.0995 7.42975 20.9795L6.36975 19.8195C6.16975 19.5995 6.18975 19.2595 6.40975 19.0595C6.62975 18.8595 6.96975 18.8795 7.16975 19.0995L7.82975 19.8195L9.09975 18.4195C9.29975 18.1995 9.63975 18.1795 9.85975 18.3795C10.0797 18.5795 10.0997 18.9195 9.89975 19.1395L8.22975 20.9895C8.12975 21.0995 7.97975 21.1695 7.82975 21.1695V21.1595Z" fill="#00008F"/>
    <path d="M15.0901 20.7294H11.8701C11.5701 20.7294 11.3301 20.4894 11.3301 20.1894C11.3301 19.8894 11.5701 19.6494 11.8701 19.6494H15.0901C15.3901 19.6494 15.6301 19.8894 15.6301 20.1894C15.6301 20.4894 15.3901 20.7294 15.0901 20.7294Z" fill="#00008F"/>
    <path d="M25.0072 23.3275C25.3426 23.8633 25.7444 24.2016 26.2098 24.3363M28.7026 24.2495C29.1438 24.022 29.4822 23.7166 29.7058 23.3484M30.7664 31.8261C30.2406 31.8261 29.6937 31.6345 29.1015 31.2394C28.6392 30.925 28.0439 30.7454 27.4698 30.7454C26.8957 30.7454 26.3065 30.922 25.8321 31.2424C25.2428 31.6345 24.699 31.8231 24.1732 31.8231C22.7893 31.8231 21.2392 30.3892 19.9218 27.8896C18.7735 25.7133 18 23.097 18 21.3847C18 18.1337 20.795 15.4904 24.2336 15.4904C24.7413 15.4904 25.2912 15.697 26.2732 16.2538C26.5512 16.4124 27.0045 16.5591 27.2552 16.5591C27.506 16.5591 27.4879 16.3675 27.4879 16.3675C27.5483 15.6371 27.3852 14.8828 27.0105 14.1194C26.5875 13.2603 25.8895 12.6047 24.9377 12.1706C24.8923 12.1497 24.8712 12.0958 24.8923 12.0509C24.9074 12.018 24.9407 12 24.9739 12C24.986 12 24.9981 12 25.0102 12.009C26.0013 12.461 26.7265 13.1435 27.1706 14.0416C27.5544 14.8169 27.7206 15.5892 27.6692 16.3346C27.6692 16.3346 27.6934 16.5561 27.9079 16.5561C28.1225 16.5561 28.4911 16.4274 28.8235 16.2688L29.2405 16.0502C29.6846 15.8197 29.9596 15.697 30.2285 15.6102C30.4733 15.5294 30.6908 15.4904 30.8872 15.4904C34.202 15.4904 37 18.1906 37 21.3847C37 23.103 36.2265 25.7193 35.0722 27.8896C33.7457 30.3892 32.1745 31.8231 30.7664 31.8231V31.8261Z" stroke="#00008F" stroke-linecap="round" stroke-linejoin="round"/>
</svg>