<svg xmlns="http://www.w3.org/2000/svg" width="17" height="17" viewBox="0 0 17 17" fill="none">
    <g clip-path="url(#clip0_0_953)">
        <path d="M8.50445 14.2479C8.23172 14.2479 8.01685 14.0247 8.01685 13.7603V5.36358C8.01685 5.09085 8.23999 4.87598 8.50445 4.87598C8.76891 4.87598 8.99205 5.09912 8.99205 5.36358V13.752C8.99205 14.0247 8.76891 14.2396 8.50445 14.2396V14.2479Z" fill="#00008F"/>
        <path d="M9.56274 14.2477H7.43878C7.16605 14.2477 6.95117 14.0245 6.95117 13.7601C6.95117 13.4956 7.17431 13.2725 7.43878 13.2725H9.56274C9.83547 13.2725 10.0503 13.4956 10.0503 13.7601C10.0503 14.0245 9.8272 14.2477 9.56274 14.2477Z" fill="#00008F"/>
        <path d="M9.56274 5.85118H7.43878C7.16605 5.85118 6.95117 5.62804 6.95117 5.36358C6.95117 5.09912 7.17431 4.87598 7.43878 4.87598H9.56274C9.83547 4.87598 10.0503 5.09912 10.0503 5.36358C10.0503 5.62804 9.8272 5.85118 9.56274 5.85118Z" fill="#00008F"/>
        <path d="M8.50445 10.6363H7.82676C6.19866 10.6363 4.86808 9.30573 4.86808 7.67763V6.2892C4.86808 6.04953 4.66974 5.85118 4.43007 5.85118H3.89288C3.62015 5.85118 3.40527 5.62804 3.40527 5.36358C3.40527 5.09912 3.62841 4.87598 3.89288 4.87598H4.43007C5.20693 4.87598 5.84329 5.51234 5.84329 6.2892V7.67763C5.84329 8.76854 6.72759 9.65284 7.8185 9.65284H8.49618C8.76891 9.65284 8.98379 9.87598 8.98379 10.1404C8.98379 10.4049 8.76065 10.628 8.49618 10.628L8.50445 10.6363Z" fill="#00008F"/>
        <path d="M9.18189 10.6359H8.50421C8.23148 10.6359 8.0166 10.4127 8.0166 10.1483C8.0166 9.88379 8.23974 9.66065 8.50421 9.66065H9.18189C10.2728 9.66065 11.1571 8.77635 11.1571 7.68544V6.29701C11.1571 5.52015 11.7935 4.88379 12.5703 4.88379H13.1075C13.3802 4.88379 13.5951 5.10693 13.5951 5.37139C13.5951 5.63586 13.372 5.859 13.1075 5.859H12.5703C12.3307 5.859 12.1323 6.05734 12.1323 6.29701V7.68544C12.1323 9.31354 10.8017 10.6441 9.17363 10.6441L9.18189 10.6359Z" fill="#00008F"/>
        <path d="M8.50413 17C3.80992 17 0 13.1901 0 8.50413C0 3.81818 3.80992 0 8.50413 0C13.1983 0 17.0083 3.80992 17.0083 8.50413C17.0083 13.1983 13.1983 17.0083 8.50413 17.0083V17ZM8.50413 0.983471C4.35537 0.983471 0.983471 4.35537 0.983471 8.50413C0.983471 12.6529 4.35537 16.0248 8.50413 16.0248C12.6529 16.0248 16.0248 12.6529 16.0248 8.50413C16.0248 4.35537 12.6446 0.983471 8.50413 0.983471Z" fill="#00008F"/>
    </g>
    <defs>
        <clipPath id="clip0_0_953">
            <rect width="17" height="17" fill="white"/>
        </clipPath>
    </defs>
</svg>