<svg xmlns="http://www.w3.org/2000/svg" width="38" height="18" viewBox="0 0 38 18" fill="none">
    <path d="M16.6149 5.82856L21.4069 6.49697C21.7822 6.54838 22.1627 6.55352 22.5432 6.50725L22.754 6.48154C23.5252 6.23989 24.1113 5.55091 24.1782 4.69227C24.2656 3.56112 23.4172 2.57393 22.2861 2.48652L15.6843 1.6433C13.386 1.35023 11.0723 2.08548 9.36524 3.65366L5.37022 7.33505L5.07715 7.55099" stroke="#00008F" stroke-linecap="round" stroke-linejoin="round"/>
    <path d="M14.1737 11.6385C14.5233 11.6385 22.1843 13.1245 22.1843 13.1245C23.0275 13.2839 23.9016 13.1245 24.6368 12.6771L30.6988 8.97005L36.6322 3.36571C37.0692 2.94924 37.1258 2.27055 36.7556 1.79752C36.0563 0.897745 34.7555 0.733213 33.8557 1.43761L28.9455 5.26296L22.755 6.48666" stroke="#00008F" stroke-linecap="round" stroke-linejoin="round"/>
    <path d="M14.1733 11.6383C13.5717 11.628 12.9804 11.8234 12.5228 12.2193L10.5382 13.9058" stroke="#00008F" stroke-linecap="round" stroke-linejoin="round"/>
    <path d="M4.574 6.97469C4.2038 6.54279 3.55596 6.49138 3.11893 6.86157L1.3605 8.35264C0.928605 8.71769 0.87719 9.36553 1.24738 9.79743L7.44815 17.0934C7.81835 17.5252 8.46619 17.5767 8.90322 17.2065L10.6617 15.7154C11.0935 15.3504 11.145 14.7025 10.7748 14.2706L4.574 6.97469Z" stroke="#00008F" stroke-linecap="round" stroke-linejoin="round"/>
</svg>