<svg xmlns="http://www.w3.org/2000/svg" width="38" height="35" viewBox="0 0 38 35" fill="none">
    <path d="M23.9717 9.73764V7.24024C23.9712 7.13731 23.9487 7.03547 23.9054 6.94055C23.8622 6.84563 23.799 6.75949 23.7196 6.68704C23.6403 6.61459 23.5461 6.55725 23.4427 6.5183C23.3392 6.47935 23.2285 6.45955 23.1167 6.46003H21.2286V4.7392C21.2281 4.63626 21.2055 4.53443 21.1623 4.43951C21.119 4.34459 21.0559 4.25845 20.9765 4.186C20.8971 4.11355 20.803 4.05621 20.6996 4.01726C20.5961 3.97831 20.4853 3.95851 20.3736 3.95899H17.6265C17.4015 3.95899 17.1856 4.04107 17.0261 4.18729C16.8666 4.3335 16.7765 4.53194 16.7755 4.7392V6.45639H14.8794C14.7677 6.45591 14.6569 6.47571 14.5534 6.51466C14.45 6.55361 14.3559 6.61094 14.2765 6.68339C14.1971 6.75584 14.134 6.84199 14.0907 6.93691C14.0475 7.03182 14.0249 7.13366 14.0244 7.2366V9.73764C14.0249 9.84058 14.0475 9.94241 14.0907 10.0373C14.134 10.1322 14.1971 10.2184 14.2765 10.2908C14.3559 10.3633 14.45 10.4206 14.5534 10.4596C14.6569 10.4985 14.7677 10.5183 14.8794 10.5178H16.7715V12.235C16.772 12.338 16.7945 12.4398 16.8378 12.5347C16.881 12.6296 16.9442 12.7158 17.0236 12.7882C17.103 12.8607 17.1971 12.918 17.3005 12.957C17.404 12.9959 17.5147 13.0157 17.6265 13.0152H20.3736C20.4853 13.0157 20.5961 12.9959 20.6996 12.957C20.803 12.918 20.8971 12.8607 20.9765 12.7882C21.0559 12.7158 21.119 12.6296 21.1623 12.5347C21.2055 12.4398 21.2281 12.338 21.2286 12.235V10.5215H23.1207C23.2324 10.5215 23.3431 10.5012 23.4463 10.4618C23.5496 10.4224 23.6434 10.3647 23.7224 10.2919C23.8015 10.2191 23.8642 10.1327 23.9069 10.0376C23.9497 9.94251 23.9717 9.84058 23.9717 9.73764ZM23.18 9.73764C23.1795 9.74483 23.1775 9.75185 23.174 9.75831C23.1706 9.76477 23.1658 9.77054 23.1599 9.77528C23.154 9.78002 23.1472 9.78365 23.1397 9.78595C23.1323 9.78825 23.1245 9.78918 23.1167 9.78868H20.8327C20.7278 9.78868 20.6271 9.82709 20.5529 9.89546C20.4786 9.96384 20.4369 10.0566 20.4369 10.1533V12.235C20.4364 12.2422 20.4344 12.2492 20.4309 12.2557C20.4275 12.2622 20.4226 12.2679 20.4168 12.2727C20.4109 12.2774 20.404 12.281 20.3966 12.2833C20.3892 12.2856 20.3814 12.2866 20.3736 12.2861H17.6265C17.6187 12.2866 17.6109 12.2856 17.6035 12.2833C17.596 12.281 17.5892 12.2774 17.5833 12.2727C17.5774 12.2679 17.5726 12.2622 17.5692 12.2557C17.5657 12.2492 17.5637 12.2422 17.5632 12.235V10.1569C17.5632 10.0602 17.5215 9.96748 17.4472 9.89911C17.373 9.83074 17.2723 9.79233 17.1673 9.79233H14.8794C14.8716 9.79282 14.8638 9.79189 14.8564 9.78959C14.849 9.78729 14.8421 9.78367 14.8362 9.77892C14.8303 9.77418 14.8255 9.76842 14.8221 9.76196C14.8186 9.7555 14.8166 9.74847 14.8161 9.74128V7.24024C14.8166 7.23306 14.8186 7.22603 14.8221 7.21957C14.8255 7.21311 14.8303 7.20735 14.8362 7.2026C14.8421 7.19786 14.849 7.19424 14.8564 7.19194C14.8638 7.18964 14.8716 7.18871 14.8794 7.1892H17.1673C17.2723 7.1892 17.373 7.15079 17.4472 7.08242C17.5215 7.01404 17.5632 6.92131 17.5632 6.82462V4.7392C17.5637 4.73201 17.5657 4.72499 17.5692 4.71853C17.5726 4.71207 17.5774 4.7063 17.5833 4.70156C17.5892 4.69682 17.596 4.69319 17.6035 4.69089C17.6109 4.68859 17.6187 4.68766 17.6265 4.68816H20.3736C20.3814 4.68766 20.3892 4.68859 20.3966 4.69089C20.404 4.69319 20.4109 4.69682 20.4168 4.70156C20.4226 4.7063 20.4275 4.71207 20.4309 4.71853C20.4344 4.72499 20.4364 4.73201 20.4369 4.7392V6.82097C20.4369 6.91767 20.4786 7.0104 20.5529 7.07877C20.6271 7.14714 20.7278 7.18556 20.8327 7.18556H23.1207C23.1285 7.18506 23.1363 7.18599 23.1437 7.18829C23.1511 7.19059 23.158 7.19421 23.1638 7.19896C23.1697 7.2037 23.1745 7.20947 23.178 7.21593C23.1815 7.22238 23.1835 7.22941 23.184 7.2366L23.18 9.73764Z" fill="#00008F"/>
    <path d="M33.6455 30.6247H31.2943V13.0736C31.2937 12.9157 31.2594 12.7593 31.1933 12.6135C31.1272 12.4677 31.0305 12.3354 30.9089 12.224C30.7872 12.1126 30.6429 12.0244 30.4842 11.9644C30.3256 11.9043 30.1556 11.8737 29.9841 11.8742H27.1776V4.34552C27.1749 3.97711 27.0352 3.62068 26.7818 3.33563L25.6695 2.06323C25.5032 1.87338 25.2927 1.72041 25.0536 1.61565C24.8145 1.51089 24.5528 1.45701 24.288 1.45802H13.7113C13.4465 1.45701 13.1849 1.51089 12.9457 1.61565C12.7066 1.72041 12.4961 1.87338 12.3299 2.06323L11.2136 3.33563C10.9602 3.62068 10.8205 3.97711 10.8178 4.34552V11.8742H8.0153C7.84376 11.8737 7.6738 11.9043 7.51512 11.9644C7.35644 12.0244 7.21214 12.1126 7.09048 12.224C6.96882 12.3354 6.87216 12.4677 6.80604 12.6135C6.73991 12.7593 6.70561 12.9157 6.70509 13.0736V30.6247H4.35384C4.24886 30.6247 4.14818 30.6631 4.07394 30.7315C3.99971 30.7998 3.95801 30.8926 3.95801 30.9893C3.95801 31.086 3.99971 31.1787 4.07394 31.2471C4.14818 31.3154 4.24886 31.3539 4.35384 31.3539H33.6455C33.7505 31.3539 33.8512 31.3154 33.9254 31.2471C33.9996 31.1787 34.0413 31.086 34.0413 30.9893C34.0413 30.8926 33.9996 30.7998 33.9254 30.7315C33.8512 30.6631 33.7505 30.6247 33.6455 30.6247ZM25.0124 25.9361V30.6247H19.3955V25.9361H25.0124ZM18.6038 30.6247H12.987V25.9361H18.6038V30.6247ZM30.4432 30.6247H25.8041V25.5716C25.8041 25.4749 25.7623 25.3821 25.6881 25.3138C25.6139 25.2454 25.5132 25.207 25.4082 25.207H12.5911C12.4862 25.207 12.3855 25.2454 12.3112 25.3138C12.237 25.3821 12.1953 25.4749 12.1953 25.5716V30.6247H7.49676V13.0736C7.49728 13.0114 7.5111 12.9499 7.53744 12.8925C7.56378 12.8352 7.60212 12.7832 7.65027 12.7396C7.69842 12.6959 7.75544 12.6614 7.81807 12.638C7.88071 12.6146 7.94772 12.6029 8.0153 12.6033H11.2176C11.3226 12.6033 11.4233 12.5649 11.4975 12.4966C11.5717 12.4282 11.6134 12.3354 11.6134 12.2388V4.34552C11.6144 4.14492 11.6898 3.95065 11.8272 3.795L12.9434 2.52261C13.0358 2.41707 13.1528 2.3321 13.2857 2.27402C13.4187 2.21595 13.5642 2.18626 13.7113 2.18719H24.288C24.4345 2.18681 24.5792 2.21676 24.7114 2.27482C24.8437 2.33287 24.96 2.41756 25.052 2.52261L26.1682 3.795C26.3056 3.95065 26.381 4.14492 26.382 4.34552V12.2388C26.382 12.3354 26.4237 12.4282 26.4979 12.4966C26.5721 12.5649 26.6728 12.6033 26.7778 12.6033H29.9801C30.0477 12.6029 30.1147 12.6146 30.1773 12.638C30.24 12.6614 30.297 12.6959 30.3451 12.7396C30.3933 12.7832 30.4316 12.8352 30.458 12.8925C30.4843 12.9499 30.4981 13.0114 30.4986 13.0736V30.6247H30.4432Z" fill="#00008F"/>
    <path d="M20.8327 20.2089H17.1712C17.0662 20.2089 16.9656 20.2473 16.8913 20.3156C16.8171 20.384 16.7754 20.4767 16.7754 20.5734V23.0745C16.7754 23.1712 16.8171 23.2639 16.8913 23.3323C16.9656 23.4007 17.0662 23.4391 17.1712 23.4391H20.8327C20.9377 23.4391 21.0383 23.4007 21.1126 23.3323C21.1868 23.2639 21.2285 23.1712 21.2285 23.0745V20.5734C21.2285 20.4767 21.1868 20.384 21.1126 20.3156C21.0383 20.2473 20.9377 20.2089 20.8327 20.2089ZM20.4368 22.7099H17.5671V20.938H20.4368V22.7099Z" fill="#00008F"/>
    <path d="M27.7088 20.209H24.0355C23.9305 20.209 23.8298 20.2474 23.7556 20.3158C23.6814 20.3841 23.6396 20.4769 23.6396 20.5736V23.0746C23.6396 23.1713 23.6814 23.264 23.7556 23.3324C23.8298 23.4008 23.9305 23.4392 24.0355 23.4392H27.7088C27.8138 23.4392 27.9145 23.4008 27.9887 23.3324C28.0629 23.264 28.1046 23.1713 28.1046 23.0746V20.5736C28.1046 20.4769 28.0629 20.3841 27.9887 20.3158C27.9145 20.2474 27.8138 20.209 27.7088 20.209ZM27.313 22.71H24.4313V20.9382H27.313V22.71Z" fill="#00008F"/>
    <path d="M13.9647 20.209H10.2913C10.1864 20.209 10.0857 20.2474 10.0114 20.3158C9.93721 20.3841 9.89551 20.4769 9.89551 20.5736V23.0746C9.89551 23.1713 9.93721 23.264 10.0114 23.3324C10.0857 23.4008 10.1864 23.4392 10.2913 23.4392H13.9528C14.0578 23.4392 14.1585 23.4008 14.2327 23.3324C14.3069 23.264 14.3486 23.1713 14.3486 23.0746V20.5736C14.3487 20.4787 14.3086 20.3876 14.2369 20.3196C14.1652 20.2515 14.0676 20.2118 13.9647 20.209ZM13.5688 22.71H10.6872V20.9382H13.557L13.5688 22.71Z" fill="#00008F"/>
    <path d="M20.8327 15.207H17.1712C17.0662 15.207 16.9656 15.2454 16.8913 15.3138C16.8171 15.3822 16.7754 15.4749 16.7754 15.5716V18.0727C16.7754 18.1694 16.8171 18.2621 16.8913 18.3305C16.9656 18.3988 17.0662 18.4372 17.1712 18.4372H20.8327C20.9377 18.4372 21.0383 18.3988 21.1126 18.3305C21.1868 18.2621 21.2285 18.1694 21.2285 18.0727V15.5716C21.2285 15.4749 21.1868 15.3822 21.1126 15.3138C21.0383 15.2454 20.9377 15.207 20.8327 15.207ZM20.4368 17.7081H17.5671V15.9362H20.4368V17.7081Z" fill="#00008F"/>
    <path d="M27.7088 15.207H24.0355C23.9305 15.207 23.8298 15.2454 23.7556 15.3138C23.6814 15.3822 23.6396 15.4749 23.6396 15.5716V18.0727C23.6396 18.1694 23.6814 18.2621 23.7556 18.3305C23.8298 18.3988 23.9305 18.4372 24.0355 18.4372H27.7088C27.8138 18.4372 27.9145 18.3988 27.9887 18.3305C28.0629 18.2621 28.1046 18.1694 28.1046 18.0727V15.5716C28.1046 15.4749 28.0629 15.3822 27.9887 15.3138C27.9145 15.2454 27.8138 15.207 27.7088 15.207ZM27.313 17.7081H24.4313V15.9362H27.313V17.7081Z" fill="#00008F"/>
    <path d="M13.9647 15.207H10.2913C10.1864 15.207 10.0857 15.2454 10.0114 15.3138C9.93721 15.3822 9.89551 15.4749 9.89551 15.5716V18.0727C9.89551 18.1694 9.93721 18.2621 10.0114 18.3305C10.0857 18.3988 10.1864 18.4372 10.2913 18.4372H13.9528C14.0578 18.4372 14.1585 18.3988 14.2327 18.3305C14.3069 18.2621 14.3486 18.1694 14.3486 18.0727V15.5716C14.3487 15.4768 14.3086 15.3857 14.2369 15.3176C14.1652 15.2495 14.0676 15.2099 13.9647 15.207ZM13.5688 17.7081H10.6872V15.9362H13.557L13.5688 17.7081Z" fill="#00008F"/>
</svg>