<svg xmlns="http://www.w3.org/2000/svg" width="39" height="31" viewBox="0 0 39 31" fill="none">
    <g clip-path="url(#clip0_0_822)">
        <path d="M28.7404 25.2694C28.4704 25.2694 28.2404 25.0694 28.2204 24.7994L27.5704 18.3994C27.4104 16.8094 26.2004 15.5294 24.6204 15.2694L20.8704 14.6594L18.1004 17.4294C17.9004 17.6294 17.5504 17.6294 17.3604 17.4294L14.5904 14.6594L10.8404 15.2694C9.27035 15.5294 8.05035 16.8194 7.89035 18.3994L7.24035 24.7994C7.21035 25.0894 6.95035 25.2994 6.66035 25.2694C6.37035 25.2394 6.16035 24.9794 6.19035 24.6894L6.84035 18.2894C7.05035 16.2294 8.62035 14.5594 10.6604 14.2194L14.6804 13.5594C14.8504 13.5294 15.0204 13.5894 15.1404 13.7094L17.7304 16.2994L20.3204 13.7094C20.4404 13.5894 20.6104 13.5294 20.7804 13.5594L24.8004 14.2194C26.8404 14.5494 28.4104 16.2294 28.6204 18.2894L29.2704 24.6894C29.3004 24.9794 29.0904 25.2394 28.8004 25.2694C28.7804 25.2694 28.7604 25.2694 28.7504 25.2694H28.7404Z" fill="#00008F"/>
        <path d="M14.7699 14.609C14.6999 14.609 14.6299 14.599 14.5599 14.569C14.2899 14.459 14.1699 14.149 14.2799 13.879L14.7099 12.889C14.8199 12.619 15.1299 12.499 15.3999 12.609C15.6699 12.719 15.7899 13.029 15.6799 13.299L15.2499 14.289C15.1599 14.489 14.9699 14.609 14.7699 14.609Z" fill="#00008F"/>
        <path d="M20.6903 14.6094C20.4903 14.6094 20.2903 14.4894 20.2103 14.2894L19.7803 13.2994C19.6703 13.0294 19.7803 12.7194 20.0603 12.6094C20.3303 12.4994 20.6403 12.6094 20.7503 12.8894L21.1803 13.8794C21.2903 14.1494 21.1803 14.4594 20.9003 14.5694C20.8303 14.5994 20.7603 14.6094 20.6903 14.6094Z" fill="#00008F"/>
        <path d="M17.7303 12.7999C15.3403 12.7999 13.8603 10.6399 13.2803 8.68988C12.6203 8.30988 12.5703 7.57988 12.5503 7.31988L12.5103 6.64988C12.4703 5.97988 12.6503 5.49988 13.0503 5.19988C13.0303 4.22988 13.1103 1.63988 14.5303 0.939882C14.5303 0.929882 14.5403 0.919882 14.5503 0.899882C14.7703 0.439882 15.1003 0.169882 16.2403 0.039882C17.6603 -0.120118 19.6203 0.149882 20.6503 0.989882L20.6903 1.01988C21.3003 1.51988 22.4103 2.42988 22.4003 5.17988C22.8003 5.47988 22.9903 5.96988 22.9503 6.62988L22.9103 7.29988C22.8903 7.57988 22.8503 8.27988 22.2203 8.64988C21.6703 10.6899 20.2203 12.7799 17.7403 12.7799L17.7303 12.7999ZM17.0503 1.04988C16.8203 1.04988 16.5903 1.05988 16.3703 1.08988C15.5903 1.17988 15.5403 1.29988 15.5103 1.35988C15.4503 1.48988 15.3303 1.72988 15.0103 1.88988C14.1903 2.28988 14.0603 4.46988 14.1303 5.46988C14.1403 5.69988 14.0103 5.90988 13.8003 5.98988C13.6903 6.03988 13.5403 6.08988 13.5703 6.58988L13.6103 7.25988C13.6403 7.69988 13.7403 7.76988 13.8903 7.81988C14.0603 7.87988 14.1903 8.00988 14.2303 8.18988C14.6603 9.83988 15.8403 11.7599 17.7303 11.7599C20.2103 11.7599 21.0503 9.02988 21.2503 8.18988C21.2903 8.01988 21.4203 7.87988 21.5903 7.81988C21.7203 7.77988 21.8203 7.73988 21.8503 7.26988L21.8903 6.59988C21.9203 6.10988 21.7803 6.04988 21.6703 5.99988C21.4603 5.91988 21.3303 5.70988 21.3403 5.48988C21.4303 3.00988 20.5903 2.30988 20.0303 1.85988L19.9903 1.82988C19.4303 1.36988 18.2103 1.06988 17.0503 1.06988V1.04988Z" fill="#00008F"/>
        <path d="M21.7203 4.08961C21.4803 4.08961 21.2703 3.92961 21.2103 3.67961C21.1703 3.49961 21.0803 3.37961 20.9103 3.28961C20.3403 2.96961 19.0803 3.05961 17.5403 3.53961C16.0703 3.99961 14.9703 3.96961 14.2703 3.44961C13.5903 2.94961 13.5703 2.20961 13.5703 2.12961C13.5703 1.83961 13.8103 1.59961 14.1003 1.59961C14.3903 1.59961 14.6203 1.82961 14.6303 2.11961C14.6303 2.13961 14.6503 2.42961 14.9103 2.60961C15.1503 2.77961 15.7603 2.98961 17.2303 2.52961C18.5503 2.11961 20.3603 1.74961 21.4303 2.36961C21.8503 2.60961 22.1203 2.97961 22.2303 3.43961C22.3003 3.71961 22.1203 4.00961 21.8403 4.06961C21.8003 4.06961 21.7603 4.07961 21.7203 4.07961V4.08961Z" fill="#00008F"/>
        <path d="M12.1999 20.2694C11.9299 20.2694 11.6899 20.0594 11.6799 19.7794C11.4299 16.1394 12.8499 14.1294 12.9099 14.0494C13.0799 13.8094 13.4099 13.7594 13.6399 13.9294C13.8799 14.0994 13.9299 14.4294 13.7599 14.6594C13.7499 14.6794 12.5099 16.4794 12.7299 19.7094C12.7499 19.9994 12.5299 20.2494 12.2399 20.2694C12.2299 20.2694 12.2199 20.2694 12.1999 20.2694Z" fill="#00008F"/>
        <path d="M23.1903 18.7704C22.9003 18.7704 22.6703 18.5304 22.6703 18.2404C22.7003 15.9504 21.8503 14.6604 21.8403 14.6504C21.6803 14.4104 21.7403 14.0804 21.9803 13.9204C22.2203 13.7604 22.5403 13.8204 22.7103 14.0604C22.7503 14.1204 23.7503 15.6104 23.7203 18.2604C23.7203 18.5504 23.4803 18.7804 23.1903 18.7804V18.7704Z" fill="#00008F"/>
        <path d="M12.2008 23.9196C11.2908 23.9196 10.5508 23.1796 10.5508 22.2596C10.5508 21.3396 11.2908 20.5996 12.2008 20.5996C13.1108 20.5996 13.8608 21.3396 13.8608 22.2596C13.8608 23.1796 13.1208 23.9196 12.2008 23.9196ZM12.2008 21.6596C11.8708 21.6596 11.6008 21.9296 11.6008 22.2596C11.6008 22.5896 11.8708 22.8596 12.2008 22.8596C12.5308 22.8596 12.8008 22.5896 12.8008 22.2596C12.8008 21.9296 12.5308 21.6596 12.2008 21.6596Z" fill="#00008F"/>
        <path d="M21.5604 24.1699H20.8604C20.6804 24.1699 20.5104 24.0799 20.4104 23.9199C19.9904 23.2499 19.7704 22.4599 19.7704 21.6299C19.7704 19.4699 21.3004 17.7099 23.1904 17.7099C25.0804 17.7099 26.6104 19.4699 26.6104 21.6299C26.6104 22.3999 26.4104 23.1499 26.0504 23.7899C25.9604 23.9499 25.7804 24.0499 25.5904 24.0499H24.9004C24.6104 24.0499 24.3704 23.8099 24.3704 23.5199C24.3704 23.2299 24.6104 22.9899 24.9004 22.9899H25.2704C25.4604 22.5699 25.5604 22.0999 25.5604 21.6199C25.5604 20.0399 24.5004 18.7499 23.1904 18.7499C21.8804 18.7499 20.8204 20.0399 20.8204 21.6199C20.8204 22.1499 20.9404 22.6599 21.1604 23.0999H21.5504C21.8404 23.0999 22.0804 23.3399 22.0804 23.6299C22.0804 23.9199 21.8404 24.1599 21.5504 24.1599L21.5604 24.1699Z" fill="#00008F"/>
        <path d="M34.93 27.25H0.53C0.24 27.25 0 27.01 0 26.72V5.83C0 5.54 0.24 5.3 0.53 5.3H10.5C10.79 5.3 11.03 5.54 11.03 5.83C11.03 6.12 10.79 6.36 10.5 6.36H1.05V26.2H34.4V11.3C34.4 11.01 34.64 10.77 34.93 10.77C35.22 10.77 35.46 11.01 35.46 11.3V26.73C35.46 27.02 35.22 27.26 34.93 27.26V27.25Z" fill="#00008F"/>
        <path d="M20.5396 30.9597H14.9196C14.6296 30.9597 14.3896 30.7197 14.3896 30.4297V28.4697C14.3896 28.1797 14.6296 27.9397 14.9196 27.9397C15.2096 27.9397 15.4496 28.1797 15.4496 28.4697V29.8997H20.0096V28.4697C20.0096 28.1797 20.2496 27.9397 20.5396 27.9397C20.8296 27.9397 21.0696 28.1797 21.0696 28.4697V30.4297C21.0696 30.7197 20.8296 30.9597 20.5396 30.9597Z" fill="#00008F"/>
        <path d="M22.7404 30.9596H12.7204C12.4304 30.9596 12.1904 30.7196 12.1904 30.4296C12.1904 30.1396 12.4304 29.8996 12.7204 29.8996H22.7404C23.0304 29.8996 23.2704 30.1396 23.2704 30.4296C23.2704 30.7196 23.0304 30.9596 22.7404 30.9596Z" fill="#00008F"/>
        <path d="M27.2703 11.4399C27.0803 11.4399 26.9003 11.3999 26.7303 11.3099C26.3403 11.1099 26.1003 10.7099 26.1003 10.2699V9.51988H25.9003C25.1403 9.51988 24.5303 8.89988 24.5303 8.14988V1.99988C24.5303 1.23988 25.1503 0.629883 25.9003 0.629883H36.9103C37.6703 0.629883 38.2803 1.24988 38.2803 1.99988V8.13988C38.2803 8.89988 37.6603 9.50988 36.9103 9.50988H30.4103L27.9303 11.2199C27.7303 11.3599 27.5003 11.4299 27.2603 11.4299L27.2703 11.4399ZM25.9003 1.67988C25.7203 1.67988 25.5803 1.81988 25.5803 1.99988V8.13988C25.5803 8.31988 25.7203 8.45988 25.9003 8.45988H26.6203C26.9103 8.45988 27.1503 8.69988 27.1503 8.98988V10.2699C27.1503 10.3299 27.1803 10.3599 27.2103 10.3699C27.2403 10.3899 27.2803 10.3999 27.3303 10.3699L29.9403 8.55988C30.0303 8.49988 30.1303 8.46988 30.2403 8.46988H36.9103C37.0903 8.46988 37.2303 8.32988 37.2303 8.14988V1.99988C37.2303 1.81988 37.0903 1.67988 36.9103 1.67988H25.9003Z" fill="#00008F"/>
    </g>
    <defs>
        <clipPath id="clip0_0_822">
            <rect width="38.29" height="30.96" fill="white"/>
        </clipPath>
    </defs>
</svg>